The 7th Voyage Of Sinbad (1958) DVDRip

 
http://www.imdb.com/title/tt0051337/


Format                         : Matroska
Format version                 : Version 2
File size                      : 1.28 GiB
Duration                       : 1h 24mn
Overall bit rate               : 2 163 Kbps
Movie name                     : NVE_DVD-Title1
Encoded date                   : UTC 2013-03-06 19:38:29
Writing application            : DVDFab
Writing library                : libebml v0.7.8 + libmatroska v0.8.1

Video
ID                             : 1
Format                         : MPEG-4 Visual
Format profile                 : Advanced Simple@L5
Format settings, BVOP          : Yes
Format settings, QPel          : No
Format settings, GMC           : No warppoints
Format settings, Matrix        : Default (H.263)
Codec ID                       : V_MPEG4/ISO/ASP
Codec ID/Info                  : Advanced Simple Profile
Duration                       : 1h 24mn
Bit rate                       : 1 928 Kbps
Width                          : 720 pixels
Height                         : 406 pixels
Display aspect ratio           : 16:9
Frame rate                     : 29.970 fps
Color space                    : YUV
Chroma subsampling             : 4:2:0
Bit depth                      : 8 bits
Scan type                      : Progressive
Compression mode               : Lossy
Bits/(Pixel*Frame)             : 0.220
Stream size                    : 1.14 GiB (89%)
Writing library                : XviD 1.2.1 (UTC 2008-12-04)
Default                        : Yes
Forced                         : No

Audio
ID                             : 2
Format                         : AC-3
Format/Info                    : Audio Coding 3
Mode extension                 : CM (complete main)
Codec ID                       : A_AC3
Duration                       : 1h 24mn
Bit rate mode                  : Constant
Bit rate                       : 192 Kbps
Channel(s)                     : 2 channels
Channel positions              : Front: L R
Sampling rate                  : 48.0 KHz
Bit depth                      : 16 bits
Compression mode               : Lossy
Delay relative to video        : -33ms
Stream size                    : 116 MiB (9%)
Default                        : Yes
Forced                         : No